<mxfile host="app.diagrams.net" modified="2023-08-24T07:51:06.833Z" agent="Mozilla/5.0 (Macintosh; Intel Mac OS X 10_15_7) AppleWebKit/537.36 (KHTML, like Gecko) Chrome/114.0.0.0 Safari/537.36" etag="OYV9VGtUE--lckdK-yPu" version="21.6.9" type="device">
  <diagram name="Page-1" id="BEE_PI4ZTQYsDp6mw7uW">
    <mxGraphModel dx="1912" dy="1020" grid="1" gridSize="10" guides="1" tooltips="1" connect="1" arrows="1" fold="1" page="1" pageScale="1" pageWidth="827" pageHeight="1169" math="0" shadow="0">
      <root>
        <mxCell id="0" />
        <mxCell id="1" parent="0" />
        <mxCell id="K29Ckt8CjFFlXVH_8B9p-33" value="" style="rounded=1;whiteSpace=wrap;html=1;" vertex="1" parent="1">
          <mxGeometry x="270" y="50" width="360" height="580" as="geometry" />
        </mxCell>
        <mxCell id="K29Ckt8CjFFlXVH_8B9p-121" value="" style="edgeStyle=orthogonalEdgeStyle;rounded=0;orthogonalLoop=1;jettySize=auto;html=1;" edge="1" parent="1" source="K29Ckt8CjFFlXVH_8B9p-1" target="K29Ckt8CjFFlXVH_8B9p-81">
          <mxGeometry relative="1" as="geometry" />
        </mxCell>
        <mxCell id="K29Ckt8CjFFlXVH_8B9p-1" value="Input&lt;br&gt;[bs, audio_sample_size]" style="rounded=0;whiteSpace=wrap;html=1;" vertex="1" parent="1">
          <mxGeometry x="370" y="130" width="160" height="60" as="geometry" />
        </mxCell>
        <mxCell id="K29Ckt8CjFFlXVH_8B9p-27" value="Linear Layer&lt;br&gt;&lt;b&gt;mu&lt;br&gt;&lt;/b&gt;[bs*n_grains, z_dim]" style="rounded=1;whiteSpace=wrap;html=1;" vertex="1" parent="1">
          <mxGeometry x="320" y="1570" width="120" height="60" as="geometry" />
        </mxCell>
        <mxCell id="K29Ckt8CjFFlXVH_8B9p-35" value="&lt;font style=&quot;font-size: 18px;&quot;&gt;&lt;b&gt;Encoder&lt;/b&gt;&lt;/font&gt;" style="text;html=1;strokeColor=none;fillColor=none;align=center;verticalAlign=middle;whiteSpace=wrap;rounded=0;" vertex="1" parent="1">
          <mxGeometry x="300" y="70" width="80" height="40" as="geometry" />
        </mxCell>
        <mxCell id="K29Ckt8CjFFlXVH_8B9p-36" value="" style="rounded=1;whiteSpace=wrap;html=1;" vertex="1" parent="1">
          <mxGeometry x="740" y="50" width="360" height="580" as="geometry" />
        </mxCell>
        <mxCell id="K29Ckt8CjFFlXVH_8B9p-37" value="&lt;font style=&quot;font-size: 18px;&quot;&gt;&lt;b&gt;Decoder&lt;br&gt;&lt;/b&gt;&lt;/font&gt;" style="text;html=1;strokeColor=none;fillColor=none;align=center;verticalAlign=middle;whiteSpace=wrap;rounded=0;" vertex="1" parent="1">
          <mxGeometry x="770" y="70" width="80" height="40" as="geometry" />
        </mxCell>
        <mxCell id="K29Ckt8CjFFlXVH_8B9p-100" value="" style="edgeStyle=orthogonalEdgeStyle;rounded=0;orthogonalLoop=1;jettySize=auto;html=1;" edge="1" parent="1" source="K29Ckt8CjFFlXVH_8B9p-41" target="K29Ckt8CjFFlXVH_8B9p-99">
          <mxGeometry relative="1" as="geometry" />
        </mxCell>
        <mxCell id="K29Ckt8CjFFlXVH_8B9p-41" value="Input&lt;br&gt;&lt;b&gt;e, conditioning&lt;/b&gt;&lt;br&gt;[bs, e_dim], [bs]" style="rounded=0;whiteSpace=wrap;html=1;" vertex="1" parent="1">
          <mxGeometry x="840" y="130" width="160" height="60" as="geometry" />
        </mxCell>
        <mxCell id="K29Ckt8CjFFlXVH_8B9p-123" value="" style="edgeStyle=orthogonalEdgeStyle;rounded=0;orthogonalLoop=1;jettySize=auto;html=1;" edge="1" parent="1" source="K29Ckt8CjFFlXVH_8B9p-81" target="K29Ckt8CjFFlXVH_8B9p-122">
          <mxGeometry relative="1" as="geometry" />
        </mxCell>
        <mxCell id="K29Ckt8CjFFlXVH_8B9p-81" value="waveformVAE.encoder&lt;br&gt;[bs*n_grains, z_dim]" style="rounded=1;whiteSpace=wrap;html=1;" vertex="1" parent="1">
          <mxGeometry x="370" y="230" width="160" height="60" as="geometry" />
        </mxCell>
        <mxCell id="K29Ckt8CjFFlXVH_8B9p-129" value="" style="edgeStyle=orthogonalEdgeStyle;rounded=0;orthogonalLoop=1;jettySize=auto;html=1;" edge="1" parent="1" source="K29Ckt8CjFFlXVH_8B9p-99" target="K29Ckt8CjFFlXVH_8B9p-128">
          <mxGeometry relative="1" as="geometry" />
        </mxCell>
        <mxCell id="K29Ckt8CjFFlXVH_8B9p-99" value="latentVAE.decoder&lt;br&gt;[bs, n_grains, z_dim]" style="rounded=1;whiteSpace=wrap;html=1;" vertex="1" parent="1">
          <mxGeometry x="840" y="230" width="160" height="60" as="geometry" />
        </mxCell>
        <mxCell id="K29Ckt8CjFFlXVH_8B9p-125" value="" style="edgeStyle=orthogonalEdgeStyle;rounded=0;orthogonalLoop=1;jettySize=auto;html=1;" edge="1" parent="1" source="K29Ckt8CjFFlXVH_8B9p-122" target="K29Ckt8CjFFlXVH_8B9p-124">
          <mxGeometry relative="1" as="geometry" />
        </mxCell>
        <mxCell id="K29Ckt8CjFFlXVH_8B9p-122" value="Reshape&lt;br&gt;[bs, n_grains, z_dim]" style="rounded=1;whiteSpace=wrap;html=1;" vertex="1" parent="1">
          <mxGeometry x="370" y="330" width="160" height="60" as="geometry" />
        </mxCell>
        <mxCell id="K29Ckt8CjFFlXVH_8B9p-127" value="" style="edgeStyle=orthogonalEdgeStyle;rounded=0;orthogonalLoop=1;jettySize=auto;html=1;" edge="1" parent="1" source="K29Ckt8CjFFlXVH_8B9p-124" target="K29Ckt8CjFFlXVH_8B9p-126">
          <mxGeometry relative="1" as="geometry" />
        </mxCell>
        <mxCell id="K29Ckt8CjFFlXVH_8B9p-124" value="latentVAE.encoder&lt;br&gt;[bs, e_dim]" style="rounded=1;whiteSpace=wrap;html=1;" vertex="1" parent="1">
          <mxGeometry x="370" y="430" width="160" height="60" as="geometry" />
        </mxCell>
        <mxCell id="K29Ckt8CjFFlXVH_8B9p-126" value="Output&lt;br&gt;[bs, e_dim]" style="rounded=0;whiteSpace=wrap;html=1;" vertex="1" parent="1">
          <mxGeometry x="370" y="524" width="160" height="60" as="geometry" />
        </mxCell>
        <mxCell id="K29Ckt8CjFFlXVH_8B9p-131" value="" style="edgeStyle=orthogonalEdgeStyle;rounded=0;orthogonalLoop=1;jettySize=auto;html=1;" edge="1" parent="1" source="K29Ckt8CjFFlXVH_8B9p-128" target="K29Ckt8CjFFlXVH_8B9p-130">
          <mxGeometry relative="1" as="geometry" />
        </mxCell>
        <mxCell id="K29Ckt8CjFFlXVH_8B9p-128" value="Reshape&lt;br&gt;[bs*n_grains, z_dim]" style="rounded=1;whiteSpace=wrap;html=1;" vertex="1" parent="1">
          <mxGeometry x="840" y="330" width="160" height="60" as="geometry" />
        </mxCell>
        <mxCell id="K29Ckt8CjFFlXVH_8B9p-133" value="" style="edgeStyle=orthogonalEdgeStyle;rounded=0;orthogonalLoop=1;jettySize=auto;html=1;" edge="1" parent="1" source="K29Ckt8CjFFlXVH_8B9p-130" target="K29Ckt8CjFFlXVH_8B9p-132">
          <mxGeometry relative="1" as="geometry" />
        </mxCell>
        <mxCell id="K29Ckt8CjFFlXVH_8B9p-130" value="waveformVAE.decoder&lt;br&gt;[bs, audio_sample_size]" style="rounded=1;whiteSpace=wrap;html=1;" vertex="1" parent="1">
          <mxGeometry x="840" y="430" width="160" height="60" as="geometry" />
        </mxCell>
        <mxCell id="K29Ckt8CjFFlXVH_8B9p-132" value="Output&lt;br&gt;[bs, audio_sample_size]" style="rounded=0;whiteSpace=wrap;html=1;" vertex="1" parent="1">
          <mxGeometry x="840" y="524" width="160" height="60" as="geometry" />
        </mxCell>
      </root>
    </mxGraphModel>
  </diagram>
</mxfile>
